<?xml version="1.0" encoding="UTF-8"?>
<svg width="220px" height="113px" viewBox="0 0 220 113" version="1.1" xmlns="http://www.w3.org/2000/svg" xmlns:xlink="http://www.w3.org/1999/xlink">
    <!-- Generator: Sketch 46 (44423) - http://www.bohemiancoding.com/sketch -->
    <title>split</title>
    <desc>Created with Sketch.</desc>
    <defs></defs>
    <g id="Page-1" stroke="none" stroke-width="1" fill="none" fill-rule="evenodd">
        <g id="split">
            <g id="Email" transform="translate(53.000000, 75.000000)" fill="#A3A3A3">
                <path d="M7.06,3.34 L24.502,3.34 L24.196,4.666 L8.284,4.666 L5.53,18.436 L18.994,18.436 L18.688,19.762 L5.326,19.762 L2.062,35.674 L18.484,35.674 L18.178,37 L0.328,37 L7.06,3.34 Z M30.112,12.622 L31.336,12.622 L30.724,16.6 L30.928,16.6 C32.322007,15.2739934 33.7329929,14.1775043 35.161,13.3105 C36.5890071,12.4434957 37.897994,12.01 39.088,12.01 C40.1080051,12.01 40.9664965,12.1544986 41.6635,12.4435 C42.3605035,12.7325014 42.9299978,13.1149976 43.372,13.591 C43.8140022,14.0670024 44.136999,14.6194969 44.341,15.2485 C44.545001,15.8775031 44.6639998,16.5319966 44.698,17.212 C46.4320087,15.5119915 48.0639923,14.2200044 49.594,13.336 C51.1240076,12.4519956 52.483994,12.01 53.674,12.01 C55.7140102,12.01 57.1759956,12.5624945 58.06,13.6675 C58.9440044,14.7725055 59.386,16.1919913 59.386,17.926 C59.386,18.5380031 59.3605003,19.0564979 59.3095,19.4815 C59.2584997,19.9065021 59.1480008,20.4759964 58.978,21.19 L55.816,37 L54.388,37 L57.55,21.394 C57.7200008,20.6119961 57.8304997,20.0000022 57.8815,19.558 C57.9325003,19.1159978 57.958,18.6400025 57.958,18.13 C57.958,16.531992 57.6095035,15.333504 56.9125,14.5345 C56.2154965,13.735496 55.068008,13.336 53.47,13.336 C52.6539959,13.336 51.4725077,13.7609957 49.9255,14.611 C48.3784923,15.4610042 46.704009,16.8379905 44.902,18.742 L41.23,37 L39.802,37 L42.964,21.394 C43.1340008,20.6119961 43.2444997,20.0000022 43.2955,19.558 C43.3465003,19.1159978 43.372,18.6400025 43.372,18.13 C43.372,16.531992 43.0235035,15.333504 42.3265,14.5345 C41.6294965,13.735496 40.482008,13.336 38.884,13.336 C38.0679959,13.336 36.8865077,13.7609957 35.3395,14.611 C33.7924923,15.4610042 32.118009,16.8379905 30.316,18.742 L26.644,37 L25.216,37 L30.112,12.622 Z M64.894,28.84 C64.894,26.4939883 65.2679963,24.3010102 66.016,22.261 C66.7640037,20.2209898 67.7584938,18.4360076 68.9995,16.906 C70.2405062,15.3759923 71.6514921,14.1775043 73.2325,13.3105 C74.8135079,12.4434957 76.4539915,12.01 78.154,12.01 C79.6500075,12.01 80.9249947,12.3839963 81.979,13.132 C83.0330053,13.8800037 83.8999966,14.8659939 84.58,16.09 L84.784,16.09 L85.702,12.622 L86.926,12.622 L82.03,37 L80.806,37 L81.418,33.022 L81.214,33.022 C79.9219935,34.3480066 78.5025077,35.4444957 76.9555,36.3115 C75.4084923,37.1785043 73.7680087,37.612 72.034,37.612 C69.8919893,37.612 68.1665065,36.8725074 66.8575,35.3935 C65.5484935,33.9144926 64.894,31.7300144 64.894,28.84 Z M72.136,36.286 C73.8360085,36.286 75.4934919,35.8015048 77.1085,34.8325 C78.7235081,33.8634952 80.2959923,32.5120087 81.826,30.778 L84.478,18.028 C83.4919951,16.3279915 82.4805052,15.1210036 81.4435,14.407 C80.4064948,13.6929964 79.2760061,13.336 78.052,13.336 C76.5219923,13.336 75.0515071,13.7779956 73.6405,14.662 C72.2294929,15.5460044 70.9800054,16.7019929 69.892,18.13 C68.8039946,19.5580071 67.9370032,21.1814909 67.291,23.0005 C66.6449968,24.8195091 66.322,26.6639906 66.322,28.534 C66.322,31.1520131 66.8404948,33.0984936 67.8775,34.3735 C68.9145052,35.6485064 70.333991,36.286 72.136,36.286 Z M96.412,12.622 L97.84,12.622 L92.944,37 L91.516,37 L96.412,12.622 Z M98.452,6.4 C98.043998,6.4 97.7040014,6.26400136 97.432,5.992 C97.1599986,5.71999864 97.024,5.38000204 97.024,4.972 C97.024,4.35999694 97.2109981,3.86700187 97.585,3.493 C97.9590019,3.11899813 98.3839976,2.932 98.86,2.932 C99.268002,2.932 99.6079986,3.06799864 99.88,3.34 C100.152001,3.61200136 100.288,3.98599762 100.288,4.462 C100.288,5.04000289 100.101002,5.50749821 99.727,5.8645 C99.3529981,6.22150178 98.9280024,6.4 98.452,6.4 Z M109.774,0.178 L111.202,0.178 L104.368,34.552 C104.3,34.8240014 104.266,35.0364992 104.266,35.1895 L104.266,35.572 C104.266,36.0480024 104.503998,36.286 104.98,36.286 C105.082001,36.286 105.1755,36.2775001 105.2605,36.2605 C105.3455,36.2434999 105.523999,36.1840005 105.796,36.082 L106,37.306 C105.727999,37.4080005 105.498501,37.4844997 105.3115,37.5355 C105.124499,37.5865003 104.878002,37.612 104.572,37.612 C104.061997,37.612 103.628502,37.4590015 103.2715,37.153 C102.914498,36.8469985 102.736,36.3880031 102.736,35.776 C102.736,35.6059991 102.753,35.4105011 102.787,35.1895 C102.821,34.9684989 102.872,34.7220014 102.94,34.45 L109.774,0.178 Z"></path>
            </g>
            <g id="SPLIT" fill="#32D478">
                <path d="M17.9411173,45.871433 L0.103390003,49.662959 L7.558,40.687 C9.58801015,42.3110081 11.7774883,43.6304949 14.1265,44.6455 C15.4387734,45.2125317 16.7103086,45.6211752 17.9411173,45.871433 Z M26.7668491,43.9954658 C27.0689505,43.4719603 27.22,42.86214 27.22,42.166 C27.22,41.4699965 27.0460017,40.8900023 26.698,40.426 C26.3499983,39.9619977 25.8425033,39.527002 25.1755,39.121 C24.5084967,38.714998 23.7110046,38.3235019 22.783,37.9465 C21.8549954,37.5694981 20.7820061,37.1490023 19.564,36.685 L12.517,33.727 C11.0089925,33.1469971 9.55900696,32.3785048 8.167,31.4215 C6.77499304,30.4644952 5.55700522,29.3335065 4.513,28.0285 C3.46899478,26.7234935 2.64250305,25.2300084 2.0335,23.548 C1.42449696,21.8659916 1.12,20.0100102 1.12,17.98 C1.12,15.5439878 1.64199478,13.2675106 2.686,11.1505 C3.73000522,9.03348942 5.17999072,7.17750798 7.036,5.5825 C8.89200928,3.98749203 11.1104871,2.72600464 13.6915,1.798 C16.2725129,0.86999536 19.0999846,0.406 22.174,0.406 C25.4220162,0.406 28.7134833,1.01499391 32.0485,2.233 C35.3835167,3.45100609 38.355987,5.36498695 40.966,7.975 L33.484,17.371 C31.5699904,16.0369933 29.7285088,15.0220035 27.9595,14.326 C26.1904912,13.6299965 24.2620104,13.282 22.174,13.282 C20.3179907,13.282 18.8680052,13.6009968 17.824,14.239 C16.7799948,14.8770032 16.258,15.8339936 16.258,17.11 C16.258,18.4440067 16.9974926,19.4734964 18.4765,20.1985 C19.9555074,20.9235036 21.999987,21.7789951 24.61,22.765 L31.483,25.462 C35.0210177,26.854007 37.7469904,28.7969875 39.661,31.291 C41.5257429,33.7208165 42.4821,36.8387479 42.5300978,40.6448836 L26.7668491,43.9954658 Z M39.7608313,50.1741328 C38.9325946,51.4264547 37.927821,52.5705723 36.7465,53.6065 C34.8614906,55.2595083 32.5560136,56.5789951 29.83,57.565 C27.1039864,58.5510049 23.9720177,59.044 20.434,59.044 C16.837982,59.044 13.140519,58.3915065 9.3415,57.0865 C9.07948989,56.9964965 8.81920429,56.9029757 8.56064316,56.8059375 L39.7608313,50.1741328 Z M93.9929726,29.7061121 L51.58,38.7212677 L51.58,1.45 L73.504,1.45 C76.5200151,1.45 79.4054862,1.75449695 82.1605,2.3635 C84.9155138,2.97250305 87.3224897,4.01649261 89.3815,5.4955 C91.4405103,6.9745074 93.0789939,8.91748797 94.297,11.3245 C95.5150061,13.731512 96.124,16.7039823 96.124,20.242 C96.124,23.7220174 95.5005062,26.7089875 94.2535,29.203 C94.1686063,29.3727875 94.0817638,29.5404915 93.9929726,29.7061121 Z M66.544,44.4811945 L66.544,58 L51.58,58 L51.58,47.6618909 L66.544,44.4811945 Z M120.31,24.1122553 L120.31,1.45 L105.346,1.45 L105.346,27.2929517 L120.31,24.1122553 Z M120.31,33.0528785 L120.31,45.472 L141.712,45.472 L141.712,58 L105.346,58 L105.346,36.2335748 L120.31,33.0528785 Z M166.42,14.3112722 L166.42,1.45 L151.456,1.45 L151.456,17.4919686 L166.42,14.3112722 Z M166.42,23.2518954 L166.42,58 L151.456,58 L151.456,26.4325918 L166.42,23.2518954 Z M174.772,12.5359998 L174.772,1.45 L219.664,1.45 L219.664,2.99391064 L174.772,12.5359998 Z M219.664,11.9345338 L219.664,13.978 L210.050248,13.978 L219.664,11.9345338 Z M204.7,15.1152302 L204.7,58 L189.736,58 L189.736,18.2959266 L204.7,15.1152302 Z M72.808,28.246 C75.7660148,28.246 77.9554929,27.550007 79.3765,26.158 C80.7975071,24.765993 81.508,22.7940128 81.508,20.242 C81.508,17.6899872 80.7540075,15.8920052 79.246,14.848 C77.7379925,13.8039948 75.5920139,13.282 72.808,13.282 L66.544,13.282 L66.544,28.246 L72.808,28.246 Z" id="Combined-Shape"></path>
            </g>
        </g>
    </g>
</svg>